<svg xmlns:xlink="http://www.w3.org/1999/xlink" xmlns="http://www.w3.org/2000/svg" height="42" alt="Ícone AppleStore" style="width:120px" width="99" viewBox="0 0 99 31" fill="none"><path d="M95.0053 29.9564H4.41445C2.53213 29.9564 1 28.4199 1 26.539V4.48772C1 2.60613 2.53213 1.07544 4.41445 1.07544H95.0053C96.8869 1.07544 98.4732 2.60613 98.4732 4.48772V26.539C98.4732 28.4199 96.8869 29.9564 95.0053 29.9564V29.9564Z" stroke="#333333" stroke-width="0.722023px" fill="none"></path><path fill-rule="evenodd" clip-rule="evenodd" d="M21.3859 5.56421C21.5057 6.65374 21.074 7.72739 20.4429 8.51656C19.7844 9.29346 18.731 9.88768 17.705 9.81115C17.5707 8.76277 18.0906 7.64797 18.6725 6.96782C19.3303 6.19598 20.4725 5.60464 21.3859 5.56421ZM24.7446 11.8493C24.6301 11.9177 22.7326 13.0502 22.7534 15.3599C22.7772 18.1491 25.1931 19.0711 25.2227 19.0812C25.2083 19.1462 24.8444 20.4119 23.9382 21.6971C23.1816 22.8285 22.3888 23.9347 21.1296 23.9549C20.5309 23.9686 20.1267 23.7965 19.7055 23.6171C19.2661 23.43 18.8083 23.235 18.092 23.235C17.3326 23.235 16.8545 23.4363 16.3933 23.6303C15.9946 23.7981 15.6086 23.9606 15.0646 23.983C13.8653 24.0271 12.949 22.7751 12.1649 21.6538C10.5974 19.3642 9.37719 15.2018 11.0133 12.3693C11.8061 10.9801 13.2516 10.0855 14.7967 10.0617C15.4771 10.0478 16.1297 10.31 16.7018 10.5399C17.1392 10.7157 17.5296 10.8725 17.8494 10.8725C18.1303 10.8725 18.5097 10.7219 18.952 10.5464C19.6489 10.2698 20.5018 9.93126 21.3707 10.0227C21.9649 10.04 23.6559 10.2574 24.7469 11.848L24.7446 11.8493Z" fill="#333333"></path><path fill-rule="evenodd" clip-rule="evenodd" d="M63.7638 23.1231C64.3335 22.6097 64.6173 21.9447 64.6173 21.1274C64.6173 20.4631 64.423 19.9065 64.0339 19.4617C63.6433 19.0155 63.036 18.6263 62.2093 18.2935C61.5335 18.027 61.0678 17.7801 60.8115 17.5519C60.5169 17.305 60.3703 16.9909 60.3703 16.6111C60.3703 16.2682 60.4989 15.9787 60.7552 15.7411C61.0584 15.4754 61.4815 15.3418 62.023 15.3418C62.7082 15.3418 63.3205 15.4891 63.862 15.7837L64.2469 14.5288C63.6671 14.2249 62.9407 14.0725 62.0664 14.0725C61.0859 14.0725 60.3017 14.3245 59.714 14.8292C59.1241 15.3332 58.8295 15.9808 58.8295 16.7707C58.8295 17.9794 59.67 18.8985 61.3523 19.526C61.9703 19.7548 62.4129 20.0025 62.6779 20.2689C62.9443 20.5353 63.0772 20.8639 63.0772 21.2538C63.0772 21.6913 62.9162 22.0422 62.5934 22.3036C62.2693 22.5649 61.818 22.6964 61.2382 22.6964C60.4303 22.6964 59.6887 22.4913 59.0129 22.0826L58.6562 23.3657C59.2837 23.765 60.1126 23.9642 61.1465 23.9642C62.2664 23.9642 63.1378 23.6841 63.7638 23.1231ZM39.7858 23.822H38.146L37.2478 20.9996H34.1258L33.2702 23.822H31.6738L34.767 14.2133H36.6775L39.7858 23.822ZM36.9763 19.8155L36.164 17.3065C36.0781 17.0502 35.9171 16.4466 35.6795 15.4964H35.6506C35.5561 15.9051 35.4037 16.5087 35.1943 17.3065L34.3965 19.8155H36.9763ZM47.7406 20.2726C47.7406 21.4509 47.4222 22.3823 46.7853 23.0661C46.2149 23.6748 45.5066 23.9787 44.6611 23.9787C43.7485 23.9787 43.0929 23.6509 42.6936 22.9953H42.6648V26.6452H41.1254V19.1744C41.1254 18.4336 41.1059 17.6733 41.0684 16.8935H42.4222L42.5081 17.9917H42.537C43.0503 17.1643 43.8294 16.7513 44.8749 16.7513C45.6922 16.7513 46.3745 17.074 46.9204 17.7202C47.4677 18.3672 47.7406 19.2177 47.7406 20.2726ZM46.1729 20.3289C46.1729 19.6546 46.0213 19.0986 45.7166 18.6611C45.3837 18.2048 44.9368 17.9766 44.3765 17.9766C43.9967 17.9766 43.6516 18.1037 43.3433 18.3542C43.0342 18.6069 42.8321 18.9369 42.7375 19.3455C42.6898 19.5362 42.666 19.6921 42.666 19.8149V20.9701C42.666 21.4741 42.8205 21.8993 43.1296 22.2466C43.4386 22.5939 43.84 22.7672 44.3339 22.7672C44.9137 22.7672 45.3649 22.5434 45.6877 22.0972C46.0112 21.6502 46.1729 21.0611 46.1729 20.3289ZM54.7526 23.0661C55.3901 22.3823 55.7085 21.4509 55.7085 20.2726C55.7085 19.2177 55.4356 18.3672 54.8897 17.7202C54.3424 17.074 53.6601 16.7513 52.8435 16.7513C51.7973 16.7513 51.0182 17.1643 50.5056 17.9917H50.4767L50.3908 16.8935H49.037C49.0746 17.6733 49.0941 18.4336 49.0941 19.1744V26.6452H50.6341V22.9953H50.6623C51.0608 23.6509 51.7164 23.9787 52.6291 23.9787C53.4746 23.9787 54.1829 23.6748 54.7526 23.0661ZM53.6845 18.6611C53.9892 19.0986 54.1415 19.6546 54.1415 20.3289C54.1415 21.0611 53.9791 21.6502 53.6563 22.0972C53.3336 22.5434 52.8823 22.7672 52.3025 22.7672C51.8072 22.7672 51.4058 22.5932 51.0968 22.2466C50.7892 21.8993 50.6347 21.4741 50.6347 20.9701V19.8149C50.6347 19.6921 50.6592 19.5361 50.7061 19.3455C50.8007 18.9369 51.0022 18.6069 51.3112 18.3542C51.6202 18.1037 51.9646 17.9766 52.3451 17.9766C52.9062 17.9766 53.3516 18.2047 53.6845 18.6611ZM69.7078 18.0486H68.011V21.4126C68.011 22.2682 68.3099 22.6956 68.9092 22.6956C69.1843 22.6956 69.4125 22.6718 69.593 22.6241L69.6356 23.7931C69.3323 23.9064 68.9331 23.9635 68.4385 23.9635C67.8305 23.9635 67.3554 23.7779 67.0125 23.4075C66.671 23.0364 66.4991 22.414 66.4991 21.5396V18.0472H65.4883V16.892H66.4991V15.6234L68.011 15.1671V16.892H69.7078V18.0486ZM77.3644 20.3007C77.3644 21.3657 77.0597 22.2401 76.4518 22.9238C75.8142 23.6278 74.968 23.9787 73.9132 23.9787C72.8965 23.9787 72.0872 23.6415 71.4835 22.9671C70.8799 22.2928 70.5781 21.4415 70.5781 20.4155C70.5781 19.3419 70.8886 18.4624 71.5117 17.7787C72.1334 17.0942 72.9724 16.752 74.0272 16.752C75.0438 16.752 75.8619 17.0891 76.4792 17.7642C77.0691 18.4191 77.3644 19.2646 77.3644 20.3007ZM75.766 20.3505C75.766 19.7115 75.6295 19.1635 75.353 18.7065C75.0302 18.1534 74.5689 17.8776 73.971 17.8776C73.3523 17.8776 72.8822 18.1541 72.5595 18.7065C72.2829 19.1642 72.1465 19.7209 72.1465 20.3794C72.1465 21.0184 72.2829 21.5664 72.5595 22.0227C72.8923 22.5758 73.3573 22.8516 73.9573 22.8516C74.545 22.8516 75.0064 22.57 75.3393 22.0083C75.6237 21.5426 75.766 20.9888 75.766 20.3505ZM82.367 18.2473C82.2146 18.2191 82.0522 18.2047 81.8818 18.2047C81.3403 18.2047 80.9215 18.409 80.6269 18.8184C80.3706 19.1794 80.2421 19.6358 80.2421 20.1867V23.822H78.7034L78.7179 19.0755C78.7179 18.2769 78.6984 17.5498 78.6601 16.8942H80.0009L80.0572 18.2199H80.0998C80.2623 17.7643 80.5186 17.3975 80.8695 17.1224C81.2125 16.8747 81.5829 16.7513 81.9821 16.7513C82.1244 16.7513 82.2529 16.7614 82.367 16.7794V18.2473ZM89.2512 20.0299C89.2512 20.3057 89.2331 20.5382 89.1948 20.7281H84.5768C84.5948 21.4126 84.8179 21.936 85.2468 22.297C85.636 22.6198 86.1392 22.7815 86.7573 22.7815C87.4411 22.7815 88.0649 22.6725 88.6259 22.4537L88.8671 23.5223C88.2115 23.8082 87.4374 23.9505 86.5443 23.9505C85.4699 23.9505 84.6266 23.6342 84.0129 23.0025C83.4006 22.3707 83.0938 21.5223 83.0938 20.4581C83.0938 19.4133 83.3789 18.5432 83.9501 17.8494C84.5479 17.1086 85.3559 16.7382 86.3725 16.7382C87.371 16.7382 88.127 17.1086 88.6403 17.8494C89.0461 18.4378 89.2512 19.1656 89.2512 20.0299ZM87.7827 19.6305C87.7928 19.1742 87.6924 18.78 87.4838 18.4471C87.2173 18.019 86.8079 17.8053 86.257 17.8053C85.7538 17.8053 85.3444 18.0139 85.0318 18.4327C84.7755 18.7656 84.6231 19.1648 84.5762 19.6298H87.7827V19.6305Z" fill="#333333"></path><path fill-rule="evenodd" clip-rule="evenodd" d="M41.3682 6.68411C41.4563 6.59964 41.5011 6.49061 41.5011 6.35487C41.5011 6.22418 41.457 6.1166 41.3682 6.03285C41.2794 5.94909 41.1697 5.90649 41.039 5.90649C40.9076 5.90649 40.7986 5.94909 40.7097 6.03285C40.6209 6.1166 40.5762 6.22491 40.5762 6.35559C40.5762 6.48628 40.6195 6.59458 40.7061 6.68123C40.7921 6.76715 40.8982 6.81047 41.0245 6.81047C41.1653 6.81047 41.2794 6.76859 41.3682 6.68411ZM40.6602 10.7744H41.4168V7.37076H40.6602V10.7744ZM35.2591 10.3751C35.5443 10.1231 35.6865 9.80541 35.6865 9.42274C35.6865 9.1101 35.589 8.84368 35.3919 8.62346C35.2194 8.43718 34.9999 8.31082 34.7342 8.24584V8.2249C34.9789 8.13609 35.1703 7.99963 35.3067 7.81551C35.4425 7.63068 35.5111 7.42634 35.5111 7.20252C35.5111 6.83356 35.3631 6.54403 35.0677 6.33392C34.7717 6.12381 34.3356 6.0184 33.758 6.0184C33.2916 6.0184 32.9002 6.05161 32.584 6.11659V10.7599C32.8829 10.7975 33.2143 10.8162 33.5789 10.8162C34.3717 10.8162 34.9327 10.669 35.2591 10.3751ZM33.8371 6.58661C34.4494 6.58661 34.7562 6.81765 34.7562 7.27975C34.7562 7.49924 34.6718 7.67686 34.5014 7.8126C34.3324 7.94762 34.1006 8.01549 33.8082 8.01549H33.3418V6.6292C33.4588 6.60105 33.6227 6.58661 33.8371 6.58661ZM34.8963 9.40178C34.8963 9.12164 34.7873 8.90936 34.5685 8.76496C34.3728 8.63427 34.1129 8.56857 33.788 8.56857H33.3418V10.2148C33.4349 10.2336 33.588 10.2429 33.8024 10.2429C34.1223 10.2429 34.3765 10.1801 34.562 10.0538C34.7844 9.90792 34.8963 9.69132 34.8963 9.40178ZM39.3853 10.7744H38.7059L38.6503 10.3823H38.6293C38.3961 10.695 38.0647 10.8516 37.6351 10.8516C37.3131 10.8516 37.0532 10.7484 36.8575 10.5433C36.6799 10.3571 36.5918 10.1253 36.5918 9.8502C36.5918 9.43431 36.7651 9.11734 37.1138 8.89785C37.4611 8.67835 37.9506 8.57077 38.581 8.57582V8.51229C38.581 8.06391 38.3456 7.84008 37.8748 7.84008C37.5391 7.84008 37.2431 7.92456 36.9875 8.09207L36.8337 7.59532C37.1499 7.39965 37.5405 7.30145 38.0012 7.30145C38.8914 7.30145 39.3369 7.77077 39.3369 8.7094V9.96283C39.3362 10.3029 39.3535 10.5737 39.3853 10.7744ZM38.6023 9.60469V9.07977C37.7669 9.06533 37.3496 9.29422 37.3496 9.7657C37.3496 9.94331 37.398 10.0762 37.4955 10.165C37.5929 10.2538 37.7164 10.2978 37.8644 10.2978C38.0312 10.2978 38.1857 10.2451 38.328 10.1404C38.4702 10.0357 38.5568 9.90144 38.5893 9.73754C38.598 9.70072 38.6023 9.65595 38.6023 9.60469ZM44.6798 10.7743H45.5347L44.386 9.00899L45.5138 7.37H44.6871L44.2878 8.0357C44.1845 8.20321 44.082 8.38805 43.9795 8.58877H43.9585C43.8322 8.35989 43.7268 8.18011 43.643 8.04942L43.2156 7.37H42.3751L43.4957 9.03715L42.334 10.7743H43.1607L43.5809 10.0603C43.7253 9.81693 43.8322 9.62848 43.9022 9.49274H43.9167C44.0336 9.71224 44.1405 9.90141 44.2387 10.0603L44.6798 10.7743ZM48.3426 10.7744H49.022C48.9895 10.5737 48.9729 10.3029 48.9736 9.96283V8.7094C48.9736 7.77077 48.5282 7.30145 47.6379 7.30145C47.1773 7.30145 46.7866 7.39965 46.4704 7.59532L46.6242 8.09207C46.8798 7.92456 47.1758 7.84008 47.5116 7.84008C47.9823 7.84008 48.2177 8.06391 48.2177 8.51229V8.57582C47.5874 8.57077 47.0978 8.67835 46.7505 8.89785C46.4018 9.11734 46.2285 9.43431 46.2285 9.8502C46.2285 10.1253 46.3166 10.3571 46.4942 10.5433C46.6899 10.7484 46.9498 10.8516 47.2718 10.8516C47.7014 10.8516 48.0329 10.695 48.2661 10.3823H48.287L48.3426 10.7744ZM48.239 9.07977V9.60469C48.239 9.65595 48.2347 9.70072 48.226 9.73754C48.1936 9.90144 48.1069 10.0357 47.9647 10.1404C47.8224 10.2451 47.6679 10.2978 47.5011 10.2978C47.3531 10.2978 47.2297 10.2538 47.1322 10.165C47.0347 10.0762 46.9863 9.94331 46.9863 9.7657C46.9863 9.29422 47.4037 9.06533 48.239 9.07977ZM51.8573 8.01553C51.9418 8.01553 52.0205 8.02203 52.0956 8.03647V7.31517C52.0407 7.30578 51.9772 7.30145 51.9064 7.30145C51.7101 7.30145 51.5281 7.3621 51.3606 7.4834C51.1873 7.61842 51.0617 7.7982 50.983 8.02275H50.962L50.9339 7.37149H50.2754C50.2934 7.69351 50.3028 8.05091 50.3028 8.44297L50.2956 10.7751H51.0516V8.98882C51.0516 8.71806 51.1151 8.49424 51.2407 8.31662C51.3866 8.1159 51.5924 8.01553 51.8573 8.01553ZM58.0622 10.7744H57.3048V8.82489C57.3048 8.22417 57.0767 7.92381 56.6196 7.92381C56.3951 7.92381 56.2139 8.00612 56.0724 8.17146C55.933 8.3368 55.8622 8.53175 55.8622 8.75485V10.7736H55.1063V8.3433C55.1063 8.04438 55.0962 7.7202 55.0781 7.36929H55.7438L55.7792 7.90142H55.8001C55.8875 7.73608 56.0189 7.59962 56.1922 7.49059C56.3965 7.36352 56.6269 7.29926 56.8774 7.29926C57.1958 7.29926 57.4601 7.40178 57.6702 7.60756C57.9308 7.85955 58.0622 8.23572 58.0622 8.73536V10.7744ZM61.9451 10.7744H61.2657L61.2108 10.3823H61.1899C60.956 10.695 60.6246 10.8516 60.1957 10.8516C59.8729 10.8516 59.613 10.7484 59.4173 10.5433C59.2397 10.3571 59.1523 10.1253 59.1523 9.85019C59.1523 9.43431 59.3256 9.11734 59.6744 8.89784C60.0209 8.67835 60.5105 8.57077 61.1408 8.57582V8.51228C61.1408 8.06391 60.9054 7.84008 60.4354 7.84008C60.0996 7.84008 59.8036 7.92456 59.5473 8.09207L59.3935 7.59531C59.7105 7.39965 60.1004 7.30145 60.561 7.30145C61.452 7.30145 61.8968 7.77077 61.8968 8.7094V9.96283C61.896 10.3029 61.9126 10.5737 61.9451 10.7744ZM61.1616 9.60468V9.07977C60.3255 9.06533 59.9082 9.29421 59.9082 9.76569C59.9082 9.94331 59.9573 10.0762 60.0548 10.165C60.1523 10.2538 60.275 10.2978 60.423 10.2978C60.5905 10.2978 60.7443 10.2451 60.8873 10.1404C61.0281 10.035 61.1154 9.90143 61.1479 9.73754C61.1573 9.70071 61.1616 9.65595 61.1616 9.60468Z" fill="#333333"></path></svg>