<svg width="21" height="20" viewBox="0 0 21 20" fill="none" xmlns="http://www.w3.org/2000/svg">
<path fill-rule="evenodd" clip-rule="evenodd" d="M15.2881 0H5.71368C5.50091 0.0531915 5.31474 0.106383 5.12857 0.159574C4.9424 0.212766 4.75623 0.265957 4.54347 0.319149C2.30942 0.851064 0.820063 2.55319 0.500914 4.89362C0.394531 5.42553 0.394531 5.95745 0.394531 6.48936V13.9362C0.394531 15.8511 0.926446 17.4468 2.41581 18.7234C3.58602 19.6809 4.86262 20 6.35198 20H14.3307C16.2456 20 17.8413 19.4681 19.1179 17.9787C19.8626 17.0213 20.1818 15.8511 20.3945 14.6809V5.31915C20.3591 5.14184 20.3354 4.96454 20.3118 4.78723C20.2645 4.43262 20.2172 4.07801 20.0754 3.7234C19.4371 1.80851 18.0541 0.638298 16.0328 0.212766C15.9264 0.159574 15.7935 0.132979 15.6605 0.106383C15.5275 0.0797872 15.3945 0.0531914 15.2881 0ZM2.41568 14.2553V10.1064V5.95746C2.41568 3.51065 3.90505 2.02129 6.35185 2.02129C9.11781 1.9149 11.8838 1.9149 14.6497 2.02129C17.0965 2.12767 18.4795 3.51065 18.5859 5.95746C18.6923 8.72341 18.6923 11.4894 18.5859 14.2553C18.4795 16.7021 17.0965 18.1915 14.6497 18.1915C11.8838 18.2979 9.11781 18.2979 6.35185 18.1915C3.90505 18.1915 2.41568 16.7021 2.41568 14.2553Z" fill="white"/>
<path fill-rule="evenodd" clip-rule="evenodd" d="M10.5009 4.89355C7.62851 4.89355 5.28809 7.23398 5.28809 10.1063C5.28809 12.8723 7.62851 15.3191 10.5009 15.3191C13.3732 15.3191 15.7136 12.9787 15.7136 10.1063C15.7136 7.34036 13.3732 4.89355 10.5009 4.89355ZM7.20306 9.99993C7.20306 8.2978 8.69242 6.80844 10.5009 6.80844C12.3094 6.80844 13.6924 8.2978 13.6924 9.99993C13.6924 11.8084 12.2031 13.2978 10.3946 13.2978C8.69242 13.2978 7.20306 11.8084 7.20306 9.99993Z" fill="white"/>
<path d="M14.543 4.68089C14.543 3.93621 15.0749 3.4043 15.8196 3.4043C16.4579 3.4043 17.0962 4.04259 17.0962 4.68089C17.0962 5.31919 16.5642 5.95749 15.8196 5.95749C15.1813 5.95749 14.543 5.42557 14.543 4.68089Z" fill="white"/>
</svg>
