<svg width="21" height="20" viewBox="0 0 21 20" fill="none" xmlns="http://www.w3.org/2000/svg">
<path fill-rule="evenodd" clip-rule="evenodd" d="M18.8408 20C19.5308 20 20.0908 19.44 20.0908 18.75V1.25C20.0908 0.56 19.5308 0 18.8408 0H1.34082C0.65082 0 0.0908203 0.56 0.0908203 1.25V18.75C0.0908203 19.44 0.65082 20 1.34082 20H18.8408ZM6.96578 6.87501H4.46578V15.625H6.96578V6.87501ZM12.9026 6.87501C11.1582 6.87501 10.8582 7.51126 10.7157 8.12501V6.87501H8.21569V15.625H10.7157V10.625C10.7157 9.81439 11.1551 9.37501 11.9657 9.37501C12.7569 9.37501 13.2157 9.80501 13.2157 10.625V15.625H15.7157V11.25C15.7157 8.75001 15.3901 6.87501 12.9026 6.87501ZM6.9658 5.00001C6.9658 5.69036 6.40616 6.25001 5.7158 6.25001C5.02544 6.25001 4.4658 5.69036 4.4658 5.00001C4.4658 4.30965 5.02544 3.75001 5.7158 3.75001C6.40616 3.75001 6.9658 4.30965 6.9658 5.00001Z" fill="white"/>
</svg>
