<svg xmlns:xlink="http://www.w3.org/1999/xlink" xmlns="http://www.w3.org/2000/svg" height="42" alt="Ícone Google Play" style="width:120px" width="99" viewBox="0 0 99 31" fill="none"><path d="M4.56474 1.07544H94.06C96.228 1.07544 98.0018 2.84117 98.0018 4.99945V25.8659C98.0018 28.0242 96.228 29.7899 94.06 29.7899H4.56474C2.39674 29.7899 0.623047 28.0242 0.623047 25.8659V4.99945C0.623047 2.84117 2.39674 1.07544 4.56474 1.07544" stroke="#333333" stroke-width="0.722023px" fill="none"></path><path fill-rule="evenodd" clip-rule="evenodd" d="M27.0625 8.82028H28.0141C28.0784 8.82028 28.1587 8.81528 28.2551 8.80529C28.3514 8.7953 28.4538 8.77131 28.5622 8.73334C28.6707 8.69536 28.7781 8.6404 28.8845 8.56845C28.9909 8.49649 29.0862 8.39856 29.1706 8.27464C29.2549 8.15072 29.3242 7.99583 29.3784 7.80995C29.4326 7.62407 29.4597 7.39922 29.4597 7.13539C29.4597 6.87956 29.4346 6.65071 29.3844 6.44885C29.3342 6.24698 29.2519 6.07509 29.1374 5.93319C29.023 5.79128 28.8754 5.68335 28.6947 5.6094C28.5141 5.53545 28.2912 5.49847 28.0262 5.49847H27.0625V8.82028ZM26.4902 5.01878H27.9659C28.6284 5.01878 29.1384 5.18667 29.4957 5.52245C29.8531 5.85823 30.0318 6.36988 30.0318 7.05743C30.0318 7.4172 29.9916 7.73598 29.9113 8.0138C29.831 8.29162 29.7065 8.52546 29.5379 8.71534C29.3693 8.90522 29.1544 9.05012 28.8934 9.15005C28.6324 9.24999 28.3233 9.29995 27.9659 9.29995H26.4902V5.01878ZM30.7539 5.01877V9.29994H31.3261V5.01877H30.7539ZM34.7774 6.27198H35.3195C35.3115 6.03613 35.2663 5.83327 35.184 5.66338C35.1017 5.49349 34.9892 5.35258 34.8467 5.24066C34.7042 5.12873 34.5385 5.04678 34.3498 4.99482C34.1611 4.94285 33.9563 4.91687 33.7354 4.91687C33.5387 4.91687 33.347 4.94185 33.1602 4.99182C32.9735 5.04179 32.8069 5.11774 32.6603 5.21967C32.5138 5.3216 32.3963 5.45152 32.308 5.60941C32.2196 5.76731 32.1755 5.95418 32.1755 6.17004C32.1755 6.36591 32.2146 6.52881 32.2929 6.65872C32.3712 6.78864 32.4756 6.89456 32.6061 6.97651C32.7366 7.05846 32.8842 7.12441 33.0488 7.17438C33.2135 7.22435 33.3811 7.26832 33.5517 7.30629C33.7224 7.34427 33.89 7.38124 34.0547 7.41722C34.2193 7.4532 34.3669 7.50016 34.4974 7.55813C34.6279 7.61609 34.7323 7.69104 34.8106 7.78298C34.8889 7.87492 34.928 7.99484 34.928 8.14274C34.928 8.29864 34.8959 8.42655 34.8316 8.52649C34.7674 8.62642 34.6831 8.70537 34.5787 8.76333C34.4743 8.82129 34.3568 8.86227 34.2263 8.88625C34.0958 8.91023 33.9663 8.92223 33.8378 8.92223C33.6772 8.92223 33.5206 8.90224 33.368 8.86227C33.2155 8.82229 33.0819 8.76033 32.9675 8.67639C32.8531 8.59244 32.7607 8.48552 32.6904 8.3556C32.6202 8.22569 32.585 8.07079 32.585 7.89091H32.043C32.043 8.15074 32.0901 8.37559 32.1845 8.56546C32.2789 8.75534 32.4074 8.91123 32.57 9.03315C32.7326 9.15507 32.9213 9.24601 33.1362 9.30597C33.351 9.36593 33.5788 9.39591 33.8198 9.39591C34.0165 9.39591 34.2143 9.37293 34.413 9.32696C34.6118 9.28099 34.7915 9.20704 34.9521 9.10511C35.1127 9.00317 35.2442 8.87126 35.3466 8.70937C35.449 8.54747 35.5002 8.3526 35.5002 8.12475C35.5002 7.91289 35.4611 7.73701 35.3828 7.5971C35.3045 7.45719 35.2001 7.34127 35.0696 7.24933C34.9391 7.15739 34.7915 7.08444 34.6269 7.03048C34.4622 6.97651 34.2946 6.92954 34.1239 6.88957C33.9533 6.84959 33.7856 6.81262 33.621 6.77864C33.4564 6.74466 33.3088 6.70169 33.1783 6.64973C33.0478 6.59776 32.9434 6.53081 32.8651 6.44886C32.7868 6.36691 32.7477 6.25998 32.7477 6.12807C32.7477 5.98816 32.7748 5.87124 32.829 5.7773C32.8832 5.68336 32.9555 5.60841 33.0458 5.55245C33.1362 5.49649 33.2395 5.45651 33.356 5.43253C33.4724 5.40855 33.5909 5.39655 33.7114 5.39655C34.0085 5.39655 34.2524 5.46551 34.4432 5.60342C34.6339 5.74133 34.7453 5.96418 34.7774 6.27198ZM36.7656 7.06944H37.8859C38.2112 7.07343 38.4491 7.00748 38.5996 6.87157C38.7502 6.73566 38.8255 6.53979 38.8255 6.28396C38.8255 6.02812 38.7502 5.83325 38.5996 5.69934C38.4491 5.56543 38.2112 5.49847 37.8859 5.49847H36.7656V7.06944ZM36.1934 5.01878H38.0786C38.5123 5.01878 38.8405 5.12971 39.0634 5.35156C39.2862 5.57341 39.3977 5.88421 39.3977 6.28394C39.3977 6.68368 39.2862 6.99547 39.0634 7.21933C38.8405 7.44318 38.5123 7.55311 38.0786 7.54911H36.7656V9.29995H36.1934V5.01878ZM40.4258 7.15938C40.4258 7.37524 40.4539 7.5881 40.5101 7.79796C40.5663 8.00782 40.6547 8.1967 40.7751 8.36459C40.8956 8.53248 41.0502 8.66739 41.2389 8.76932C41.4276 8.87125 41.6525 8.92222 41.9135 8.92222C42.1745 8.92222 42.3993 8.87125 42.5881 8.76932C42.7768 8.66739 42.9314 8.53248 43.0518 8.36459C43.1723 8.1967 43.2606 8.00782 43.3168 7.79796C43.3731 7.5881 43.4012 7.37524 43.4012 7.15938C43.4012 6.94352 43.3731 6.73067 43.3168 6.5208C43.2606 6.31094 43.1723 6.12207 43.0518 5.95418C42.9314 5.78629 42.7768 5.65138 42.5881 5.54944C42.3993 5.44751 42.1745 5.39655 41.9135 5.39655C41.6525 5.39655 41.4276 5.44751 41.2389 5.54944C41.0502 5.65138 40.8956 5.78629 40.7751 5.95418C40.6547 6.12207 40.5663 6.31094 40.5101 6.5208C40.4539 6.73067 40.4258 6.94352 40.4258 7.15938ZM39.8555 7.15939C39.8555 6.86758 39.8986 6.58677 39.985 6.31695C40.0713 6.04712 40.2008 5.80828 40.3735 5.60042C40.5461 5.39256 40.7609 5.22667 41.0179 5.10275C41.2749 4.97883 41.574 4.91687 41.9154 4.91687C42.2567 4.91687 42.5558 4.97883 42.8128 5.10275C43.0698 5.22667 43.2846 5.39256 43.4573 5.60042C43.6299 5.80828 43.7594 6.04712 43.8457 6.31695C43.9321 6.58677 43.9752 6.86758 43.9752 7.15939C43.9752 7.4512 43.9321 7.73201 43.8457 8.00183C43.7594 8.27166 43.6299 8.5105 43.4573 8.71836C43.2846 8.92622 43.0698 9.09111 42.8128 9.21303C42.5558 9.33495 42.2567 9.39591 41.9154 9.39591C41.574 9.39591 41.2749 9.33495 41.0179 9.21303C40.7609 9.09111 40.5461 8.92622 40.3735 8.71836C40.2008 8.5105 40.0713 8.27166 39.985 8.00183C39.8986 7.73201 39.8555 7.4512 39.8555 7.15939ZM44.668 5.01877V9.29994H45.21V5.86421H45.2221L47.4687 9.29994H48.0951V5.01877H47.553V8.49048H47.541L45.2763 5.01877H44.668ZM49.619 5.01878V9.29995H49.0468V5.01878H49.619ZM50.2093 3.6217L49.3601 4.59306H48.9746L49.5528 3.6217H50.2093ZM52.2756 9.29994L53.8054 5.01877H53.2091L51.9684 8.73032H51.9563L50.7276 5.01877H50.1133L51.6251 9.29994H52.2756ZM54.2637 5.01877V9.29994H57.2511V8.82026H54.8359V7.33924H57.0704V6.85955H54.8359V5.49845H57.233V5.01877H54.2637ZM57.9414 5.01877V9.29994H60.7903V8.82026H58.5136V5.01877H57.9414ZM62.9609 5.01877V9.29994H63.503V5.86421H63.5151L65.7617 9.29994H66.3881V5.01877H65.846V8.49048H65.8339L63.5693 5.01877H62.9609ZM67.6445 7.15938C67.6445 7.37524 67.6726 7.5881 67.7289 7.79796C67.7851 8.00782 67.8734 8.1967 67.9939 8.36459C68.1143 8.53248 68.2689 8.66739 68.4576 8.76932C68.6464 8.87125 68.8712 8.92222 69.1322 8.92222C69.3932 8.92222 69.6181 8.87125 69.8068 8.76932C69.9955 8.66739 70.1501 8.53248 70.2706 8.36459C70.391 8.1967 70.4794 8.00782 70.5356 7.79796C70.5918 7.5881 70.6199 7.37524 70.6199 7.15938C70.6199 6.94352 70.5918 6.73067 70.5356 6.5208C70.4794 6.31094 70.391 6.12207 70.2706 5.95418C70.1501 5.78629 69.9955 5.65138 69.8068 5.54944C69.6181 5.44751 69.3932 5.39655 69.1322 5.39655C68.8712 5.39655 68.6464 5.44751 68.4576 5.54944C68.2689 5.65138 68.1143 5.78629 67.9939 5.95418C67.8734 6.12207 67.7851 6.31094 67.7289 6.5208C67.6726 6.73067 67.6445 6.94352 67.6445 7.15938ZM67.0723 7.15939C67.0723 6.86758 67.1154 6.58677 67.2018 6.31695C67.2881 6.04712 67.4176 5.80828 67.5902 5.60042C67.7629 5.39256 67.9777 5.22667 68.2347 5.10275C68.4917 4.97883 68.7908 4.91687 69.1322 4.91687C69.4735 4.91687 69.7726 4.97883 70.0296 5.10275C70.2866 5.22667 70.5014 5.39256 70.6741 5.60042C70.8467 5.80828 70.9762 6.04712 71.0625 6.31695C71.1489 6.58677 71.192 6.86758 71.192 7.15939C71.192 7.4512 71.1489 7.73201 71.0625 8.00183C70.9762 8.27166 70.8467 8.5105 70.6741 8.71836C70.5014 8.92622 70.2866 9.09111 70.0296 9.21303C69.7726 9.33495 69.4735 9.39591 69.1322 9.39591C68.7908 9.39591 68.4917 9.33495 68.2347 9.21303C67.9777 9.09111 67.7629 8.92622 67.5902 8.71836C67.4176 8.5105 67.2881 8.27166 67.2018 8.00183C67.1154 7.73201 67.0723 7.4512 67.0723 7.15939Z" fill="#333333"></path><path fill-rule="evenodd" clip-rule="evenodd" d="M31.2403 16.8175H35.7993C35.8025 16.8305 35.8818 17.1558 35.8818 17.7105C35.8818 20.3937 33.9341 22.2082 31.2734 22.2083C28.2481 22.2083 26.1934 19.7597 26.1934 17.2487C26.1934 14.6862 28.3778 12.3136 31.2014 12.3137C33.4189 12.3137 34.6348 13.6611 34.6348 13.6611L33.6874 14.6377C33.6874 14.6377 32.7837 13.6643 31.2498 13.6643C29.2619 13.6643 27.6763 15.2342 27.6763 17.2727C27.6763 19.3654 29.3396 20.8583 31.2457 20.8584C32.7355 20.8584 34.3138 20.0529 34.4737 18.1644H31.2403V16.8175ZM36.4629 18.9963C36.4629 17.2981 37.8035 15.8422 39.6744 15.8422C41.2121 15.8422 42.8797 16.927 42.8797 19.0333C42.8797 20.871 41.4461 22.2025 39.6962 22.2025C37.7632 22.2025 36.4629 20.7194 36.4629 18.9963ZM41.4851 19.0249C41.4851 17.8318 40.6134 17.0913 39.6933 17.0913C38.6597 17.0913 37.8652 17.914 37.8652 19.0157C37.8652 20.1412 38.6696 20.9541 39.6891 20.9541C40.617 20.9541 41.4851 20.1926 41.4851 19.0249ZM46.733 15.8422C44.8622 15.8422 43.5215 17.2981 43.5215 18.9963C43.5215 20.7194 44.8219 22.2025 46.755 22.2025C48.5048 22.2025 49.9384 20.871 49.9384 19.0333C49.9384 16.927 48.2709 15.8422 46.733 15.8422ZM46.7518 17.0913C47.6717 17.0913 48.5436 17.8318 48.5436 19.0249C48.5436 20.1926 47.6755 20.9541 46.7475 20.9541C45.7281 20.9541 44.9238 20.1412 44.9238 19.0157C44.9238 17.914 45.7181 17.0913 46.7518 17.0913ZM50.584 19.0232C50.584 17.3427 51.9339 15.8456 53.6508 15.8456C54.3984 15.8456 54.9616 16.1337 55.3733 16.5755V16.0368H56.7127V21.7513C56.7127 23.9964 55.4115 25.0669 53.7041 25.0669C52.1434 25.0669 51.2666 24.1109 50.8309 23.1941L52.0587 22.6831C52.2288 23.0929 52.7183 23.8153 53.694 23.8153C54.7041 23.8153 55.3732 23.1582 55.3732 22.061V21.4339C55.0159 21.847 54.5318 22.2067 53.6212 22.2067C52.1488 22.2067 50.584 20.9374 50.584 19.0232ZM55.4805 19.0299C55.4805 17.8078 54.616 17.0922 53.774 17.0922C52.873 17.0922 51.9883 17.8208 51.9883 19.0417C51.9883 20.2167 52.8402 20.9566 53.7555 20.9566C54.6178 20.9566 55.4805 20.2721 55.4805 19.0299ZM62.9484 15.838C61.3287 15.838 59.9688 17.1209 59.9688 19.0139C59.9688 21.017 61.4846 22.205 63.104 22.205C64.4555 22.205 65.285 21.4689 65.7801 20.8094L64.6759 20.0778C64.3893 20.5207 63.9101 20.9534 63.1107 20.9534C62.2127 20.9534 61.7998 20.4638 61.5439 19.9895L65.8274 18.2202L65.6049 17.7016C65.1911 16.6862 64.2259 15.8382 62.9485 15.8382L62.9484 15.838ZM63.0027 17.0611C63.5863 17.0611 64.0063 17.3701 64.1847 17.7404L61.3241 18.9306C61.2009 18.0091 62.0778 17.0611 63.0026 17.0611H63.0027ZM59.1941 22.0162H57.7871V12.6425H59.1941V22.0162ZM76.6504 22.0162H78.0574V12.6425H76.6504V22.0162ZM70.5945 22.0162H69.1875V12.6425H69.1895H70.5945H72.5929C74.2427 12.6425 75.5925 13.9863 75.5925 15.6286C75.5925 17.271 74.2427 18.6147 72.5929 18.6147H70.5945V22.0162ZM70.5957 14.0433V17.2141H72.5921C73.4654 17.2141 74.1848 16.498 74.1848 15.6286C74.1848 14.7595 73.4654 14.0433 72.5921 14.0433H70.5957ZM92.5188 15.8383L88.4449 25.067H86.9082L88.3699 21.7556L85.7578 15.8383H87.2945L89.1383 20.015L90.982 15.8383H92.5188ZM82.2612 20.8556C83.0313 20.6466 83.6383 20.086 83.8183 19.3066C83.4246 19.1796 83.0624 19.0773 82.6473 19.0273C80.2295 18.6656 80.6343 21.297 82.2612 20.8556ZM85.2233 22.0162H83.8163V21.2596C83.492 21.6436 83.0963 21.9409 82.5937 22.0773C81.7009 22.3196 80.6141 22.224 79.9522 21.5151C79.5275 21.0602 79.3916 20.3134 79.4712 19.7078C79.6185 18.5869 80.5453 17.9026 81.6277 17.7935C82.3212 17.7237 83.0802 17.8581 83.7828 18.0433C83.6291 16.5152 81.2913 16.1871 80.4721 17.613L79.3398 16.8567C81.0154 14.35 85.4434 15.168 85.2233 18.645V22.0162Z" fill="#333333"></path><path fill-rule="evenodd" clip-rule="evenodd" d="M9.00948 7.7882L16.244 14.9795L9.04421 22.2335C8.83411 22.1009 8.72147 21.8129 8.71957 21.4411C8.71595 20.7284 8.65863 9.41493 8.65432 8.56609C8.65231 8.15896 8.80108 7.91052 9.00948 7.7882ZM18.6276 12.5753L9.83041 7.79731C9.73645 7.74614 9.62974 7.71506 9.52344 7.70117L16.5412 14.6773L18.6276 12.5753ZM19.02 17.14L16.8438 14.9768L19.0178 12.7865L22.0116 14.4123C22.7492 14.8126 22.3719 15.3135 22.0116 15.5098L19.02 17.14ZM9.64062 22.2351C9.70196 22.2121 9.76601 22.1829 9.83246 22.1467L18.6314 17.352L16.5454 15.2784L9.64062 22.2351Z" fill="#333333"></path></svg>