<svg width="25" height="20" viewBox="0 0 25 20" fill="none" xmlns="http://www.w3.org/2000/svg">
<path d="M24.6033 2.41138C23.8324 2.76049 22.9814 2.97141 22.1522 3.10961C22.545 3.04415 23.1269 2.3241 23.3596 2.04044C23.716 1.59677 24.0069 1.09492 24.1742 0.549426C24.196 0.505786 24.2106 0.454874 24.1669 0.418507C24.116 0.396688 24.0797 0.411234 24.036 0.42578C23.105 0.920361 22.145 1.28402 21.1194 1.53859C21.0322 1.56041 20.974 1.53859 20.9158 1.48767C20.8285 1.39312 20.7485 1.29857 20.6612 1.22584C20.2321 0.862175 19.7666 0.571245 19.2502 0.360321C18.5665 0.0839383 17.8174 -0.0397069 17.0828 0.0112058C16.37 0.0548452 15.6645 0.258496 15.0317 0.593065C14.3917 0.927634 13.8244 1.38585 13.3734 1.94589C12.908 2.52047 12.5588 3.20416 12.3843 3.93148C12.217 4.62971 12.2243 5.32067 12.3334 6.02618C12.3479 6.14255 12.3406 6.15709 12.2315 6.14255C8.23127 5.54614 4.90739 4.11331 2.21629 1.04401C2.09992 0.913088 2.03446 0.913088 1.93991 1.05128C0.761642 2.81868 1.33623 5.65524 2.80542 7.0517C3.0018 7.24081 3.20545 7.42264 3.42365 7.58992C3.34364 7.60447 2.36176 7.50264 1.48897 7.0517C1.3726 6.97897 1.31441 7.02261 1.29986 7.15353C1.29259 7.34263 1.30714 7.51719 1.32896 7.72811C1.55443 9.51733 2.79816 11.1756 4.49282 11.8229C4.69647 11.9102 4.91466 11.983 5.13286 12.0193C4.74738 12.1066 4.34735 12.1648 3.23454 12.0775C3.09635 12.0484 3.04544 12.1212 3.09635 12.2521C3.93278 14.5286 5.72927 15.205 7.08209 15.5832C7.26392 15.6123 7.44576 15.6123 7.62759 15.6559C7.62031 15.6705 7.60576 15.6705 7.59849 15.685C7.15482 16.3687 5.59835 16.8706 4.8783 17.1251C3.56185 17.5834 2.13628 17.787 0.747096 17.6561C0.521625 17.627 0.477988 17.627 0.419802 17.6561C0.361616 17.6925 0.412526 17.7434 0.485259 17.8016C0.768915 17.9907 1.05257 18.1507 1.3435 18.3107C2.22356 18.7762 3.14726 19.1471 4.10733 19.4162C9.06768 20.7836 14.6608 19.7799 18.3847 16.0778C21.3085 13.1685 22.3341 9.16094 22.3341 5.14611C22.3341 4.9861 22.5232 4.89882 22.6323 4.81882C23.396 4.24423 23.9996 3.56055 24.567 2.79686C24.6979 2.6223 24.6833 2.46956 24.6833 2.41138C24.6833 2.4041 24.6833 2.38956 24.6833 2.38956C24.6906 2.34592 24.7052 2.36774 24.6033 2.41138Z" fill="white"/>
<path fill-rule="evenodd" clip-rule="evenodd" d="M8.43457 19.9545C8.43457 19.9108 8.86369 19.9545 8.43457 19.9545C8.43457 19.9326 8.48548 19.9545 8.43457 19.9545Z" fill="white"/>
<path fill-rule="evenodd" clip-rule="evenodd" d="M17.0247 0.0405273C16.9956 0.0623471 16.9592 0.0623471 16.9229 0.0405273C16.9665 0.0405273 17.0029 0.0405273 17.0247 0.0405273Z" fill="white"/>
</svg>
