<svg width="24" height="18" viewBox="0 0 24 18" fill="none" xmlns="http://www.w3.org/2000/svg">
<path fill-rule="evenodd" clip-rule="evenodd" d="M21.9764 1.76792C22.648 2.50175 22.8665 4.16846 22.8665 4.16846C22.8665 4.16846 23.0906 6.12417 23.0906 8.08058V9.91375C23.0906 11.8702 22.8665 13.8259 22.8665 13.8259C22.8665 13.8259 22.6473 15.4919 21.9764 16.2243C21.2081 17.0915 20.3567 17.1815 19.8757 17.2323C19.8232 17.2379 19.7751 17.243 19.732 17.2485C16.5968 17.4915 11.8895 17.5 11.8895 17.5C11.8895 17.5 6.06456 17.4426 4.27253 17.257C4.18771 17.2399 4.08496 17.2266 3.96863 17.2114C3.40112 17.1377 2.51048 17.0219 1.80263 16.2236C1.13106 15.4912 0.912567 13.8252 0.912567 13.8252C0.912567 13.8252 0.688477 11.8702 0.688477 9.91304V8.07987C0.688477 6.12417 0.912567 4.16846 0.912567 4.16846C0.912567 4.16846 1.13176 2.50175 1.80263 1.76792C2.57433 0.897624 3.42858 0.810089 3.90846 0.760915C3.95898 0.755739 4.00535 0.750987 4.04704 0.745792C7.18151 0.5 11.8839 0.5 11.8839 0.5H11.8944C11.8944 0.5 16.5968 0.5 19.732 0.745792C19.7737 0.750989 19.8201 0.755742 19.8707 0.760922C20.3507 0.810096 21.2054 0.897661 21.9764 1.76792ZM16.8674 9.00002L9.8646 13.25V4.75002L16.8674 9.00002Z" fill="white"/>
</svg>
